<svg width="397" height="310" viewBox="0 0 397 310" fill="none" xmlns="http://www.w3.org/2000/svg">
<ellipse cx="317.79" cy="119.79" rx="31" ry="38" transform="rotate(45 317.79 119.79)" fill="black"/>
<ellipse cx="251.847" cy="48.409" rx="31" ry="38" transform="rotate(30 251.847 48.409)" fill="black"/>
<ellipse cx="159.847" cy="48.409" rx="31" ry="38" transform="rotate(-30 159.847 48.409)" fill="black"/>
<ellipse cx="85.7904" cy="114.79" rx="31" ry="38" transform="rotate(-45 85.7904 114.79)" fill="black"/>
<path d="M152.198 126.467C176.182 97.6234 220.458 97.6235 244.442 126.467L272.529 160.244C305.024 199.323 263.753 255.895 216.619 236.882V236.882C204.879 232.146 191.761 232.146 180.021 236.882V236.882C132.887 255.895 91.6158 199.323 124.111 160.244L152.198 126.467Z" fill="black"/>
</svg>
